PathFileType	4	(x/y/z)	S10_P20_T22
DataRate	CameraRate	NumFrames	NumMarkers	Units	OrigDataRate	OrigDataStartFrame	OrigNumFrames
240	240	10	51	mm	240	304	405
Frame#	Time	Sternum			R.Acromium			L.Acromium			Top.Head			R.ASIS			L.ASIS			R.PSIS			L.PSIS			R.Great.Tro			L.Great.Tro			R.Iliac.Crest			L.Iliac.Crest			V.Sacral			R.Thigh.Upper.Post			R.Thigh.Lower.Ant			R.Thigh.Lower.Post			R.Thigh.Upper.Ant			R.Knee.Lat			R.Knee.Med			R.Shank.Upper.Post			R.Shank.Lower.Ant			R.Shank.Lower.Post			R.Shank.Upper.Ant			R.Ankle.Lat			R.Ankle.Med			R.Heel.Upper			R.Heel.Med			R.Heel.Lat			R.Toe.Lat			R.Toe.Med			R.Toe.Tip			L.Thigh.Upper.Post			L.Thigh.Lower.Ant			L.Thigh.Lower.Post			L.Thigh.Upper.Ant			L.Knee.Lat			L.Knee.Med			L.Shank.Upper.Post			L.Shank.Lower.Ant			L.Shank.Lower.Post			L.Shank.Upper.Ant			L.Ankle.Lat			L.Ankle.Med			L.Heel.Upper			L.Heel.Med			L.Heel.Lat			L.Toe.Lat			L.Toe.Med			L.Toe.Tip			Cervical.Spine			Back			
		X1	Y1	Z1	X2	Y2	Z2	X3	Y3	Z3	X4	Y4	Z4	X5	Y5	Z5	X6	Y6	Z6	X7	Y7	Z7	X8	Y8	Z8	X9	Y9	Z9	X10	Y10	Z10	X11	Y11	Z11	X12	Y12	Z12	X13	Y13	Z13	X14	Y14	Z14	X15	Y15	Z15	X16	Y16	Z16	X17	Y17	Z17	X18	Y18	Z18	X19	Y19	Z19	X20	Y20	Z20	X21	Y21	Z21	X22	Y22	Z22	X23	Y23	Z23	X24	Y24	Z24	X25	Y25	Z25	X26	Y26	Z26	X27	Y27	Z27	X28	Y28	Z28	X29	Y29	Z29	X30	Y30	Z30	X31	Y31	Z31	X32	Y32	Z32	X33	Y33	Z33	X34	Y34	Z34	X35	Y35	Z35	X36	Y36	Z36	X37	Y37	Z37	X38	Y38	Z38	X39	Y39	Z39	X40	Y40	Z40	X41	Y41	Z41	X42	Y42	Z42	X43	Y43	Z43	X44	Y44	Z44	X45	Y45	Z45	X46	Y46	Z46	X47	Y47	Z47	X48	Y48	Z48	X49	Y49	Z49	X50	Y50	Z50	X51	Y51	Z51	

304	1.2625	279.1	1287.6	328.68	146.76	1446.3	470.95	166.89	1473	172.77	136.01	1762.1	350.53	213.65	1015.7	430.77	224.39	1034.8	201.33	17.427	1041.8	334.9	26.623	1051.2	253.71	140.63	938.51	498.55	163.84	973.26	138.85	116.27	1097.7	470.45	162.55	1110.6	172.72	-0.081073	1012.6	294.74	221.82	740.18	509.63	301.11	683.5	478.29	245.41	653.76	506.97	277.18	771.56	476.31	271.36	528.83	472.79	287.89	530.12	341.83	97.281	383.97	458.57	113.64	293.87	448.13	54.515	323.76	452.3	162.72	353.45	457.9	7.7061	226.01	429.52	29.267	226.27	351.9	-58.602	228.34	370.92	-68.047	202.69	342.16	-77.347	209.21	403.41	29.482	83.116	465.08	68.012	69.091	363.18	116.49	44.688	411.36	130.39	689.31	157.9	201.92	610.57	188.98	131.46	596.84	185.34	208.5	698.55	161.41	168.44	512.5	199.71	175.12	517.3	328.17	83.969	306	203.88	139.32	212.21	225.26	78.434	229.4	215.96	145.77	288.13	212.17	91.74	108	232	103.93	120.18	318.17	20.036	78.205	276.59	30.412	45.842	309.31	26.883	48.688	245.3	204.42	41.786	209.33	231.16	45.763	318.59	286.26	56.544	270.79	80.983	1507.9	325.42	-7.0331	1302.4	305.87
305	1.2667	284.12	1288.4	329.01	151.27	1446.8	470.99	172.82	1473.9	173	141.48	1762.7	350.86	218.55	1016.6	430.59	229.32	1035.1	201.15	22.377	1042.5	334.88	31.561	1051.8	253.62	145.87	939.67	498.68	168.47	973.34	138.87	121.23	1098.7	470.2	167.68	1110.9	172.48	4.8758	1013.2	294.77	228.67	741.78	509.71	308.26	685.67	477.9	253.01	655.55	507.04	283.58	773.53	475.99	279.35	530.5	472.5	295.47	532.31	341.75	107.48	382.32	458.18	125.66	292.6	448.06	65.972	321.27	451.99	173.5	353.14	457.8	21.003	222.46	429.25	42.987	222.91	351.85	-45.549	222.47	370.42	-54.023	196.3	341.78	-63.749	202.9	402.96	47.007	80.895	465.96	86.429	67.393	364.25	135.47	44.933	412.79	133.04	689.8	158.14	204	610.43	188.98	133.46	597.32	185.51	211.22	698.42	161.39	169.85	512.59	199.56	176.99	517.25	328.03	84.745	306.35	203.84	139.72	212.34	225.17	78.997	229.78	215.91	146.44	288.26	212.07	91.88	108.13	232.02	104.01	120.42	318.19	20.143	78.34	276.63	30.558	45.932	309.32	26.952	48.844	245.33	204.47	41.741	209.32	231.25	45.741	318.52	286.35	56.333	270.76	86.198	1508.5	325.23	-1.8009	1303.1	305.04
306	1.2708	289.15	1289.1	329.3	155.8	1447.2	471.04	178.75	1474.9	173.23	146.95	1763.2	351.2	223.47	1017.5	430.42	234.24	1035.3	200.97	27.329	1043.1	334.9	36.492	1052.3	253.55	151.12	940.78	498.83	173.1	973.38	138.89	126.22	1099.6	469.97	172.78	1111.2	172.25	9.829	1013.8	294.84	235.47	743.33	509.78	315.35	687.77	477.48	260.56	657.29	507.09	289.99	775.43	475.64	287.18	532.09	472.19	302.86	534.44	341.67	117.66	380.54	457.78	137.72	291.24	448	77.471	318.65	451.66	184.25	352.74	457.67	34.446	218.78	429	56.844	219.44	351.81	-32.272	216.45	369.97	-39.761	189.79	341.44	-49.902	196.44	402.56	64.668	78.66	466.83	104.95	65.73	365.3	154.5	45.232	414.17	135.71	690.28	158.37	206.11	610.29	188.97	135.49	597.79	185.68	213.96	698.29	161.38	171.28	512.67	199.42	178.83	517.19	327.89	85.537	306.71	203.79	140.12	212.46	225.09	79.574	230.16	215.86	147.12	288.38	211.97	92.023	108.27	232.05	104.11	120.65	318.23	20.265	78.477	276.68	30.735	46.015	309.34	27.024	49.005	245.36	204.51	41.698	209.32	231.35	45.72	318.45	286.45	56.124	270.74	91.418	1509	325.04	3.4357	1303.7	304.24
307	1.275	294.18	1289.7	329.57	160.36	1447.6	471.08	184.67	1475.8	173.48	152.4	1763.6	351.56	228.42	1018.3	430.25	239.15	1035.5	200.79	32.283	1043.7	334.94	41.42	1052.7	253.52	156.39	941.82	498.99	177.73	973.38	138.92	131.25	1100.4	469.75	177.87	1111.5	172.03	14.779	1014.3	294.93	242.23	744.83	509.84	322.39	689.79	477.03	268.05	658.98	507.11	296.41	777.28	475.27	294.86	533.61	471.85	310.07	536.5	341.58	127.84	378.63	457.39	149.81	289.81	447.93	89.019	315.9	451.33	194.99	352.26	457.53	48.041	214.96	428.77	70.837	215.89	351.79	-18.765	210.28	369.57	-25.26	183.17	341.17	-35.799	189.84	402.22	82.46	76.423	467.68	123.55	64.109	366.33	173.57	45.593	415.49	138.42	690.74	158.59	208.26	610.16	188.95	137.55	598.25	185.83	216.72	698.16	161.4	172.72	512.74	199.29	180.64	517.11	327.77	86.345	307.06	203.75	140.53	212.58	225	80.163	230.55	215.81	147.81	288.5	211.87	92.17	108.4	232.09	104.24	120.89	318.28	20.402	78.617	276.75	30.932	46.094	309.37	27.097	49.174	245.41	204.55	41.657	209.32	231.44	45.701	318.38	286.54	55.916	270.71	96.644	1509.4	324.87	8.6776	1304.3	303.45
308	1.2792	299.2	1290.3	329.81	164.93	1447.9	471.12	190.57	1476.6	173.74	157.84	1764	351.93	233.4	1019	430.09	244.05	1035.6	200.61	37.24	1044.3	335.01	46.346	1053.1	253.51	161.66	942.81	499.17	182.37	973.35	138.96	136.32	1101.2	469.55	182.93	1111.7	171.82	19.728	1014.8	295.06	248.93	746.27	509.88	329.35	691.74	476.57	275.48	660.6	507.11	302.83	779.06	474.87	302.39	535.05	471.49	317.09	538.48	341.48	138.01	376.6	456.99	161.94	288.3	447.88	100.62	313.05	451	205.71	351.7	457.38	61.79	211.04	428.57	84.963	212.25	351.79	-5.0231	204	369.24	-10.518	176.48	340.96	-21.439	183.15	401.94	100.38	74.193	468.51	142.22	62.543	367.33	192.68	46.019	416.75	141.15	691.18	158.79	210.45	610.03	188.93	139.65	598.69	185.96	219.5	698.02	161.43	174.18	512.81	199.16	182.43	517.01	327.64	87.171	307.41	203.71	140.94	212.7	224.93	80.764	230.94	215.75	148.51	288.61	211.78	92.322	108.54	232.13	104.4	121.13	318.34	20.552	78.761	276.82	31.142	46.169	309.42	27.173	49.35	245.45	204.58	41.618	209.32	231.53	45.683	318.31	286.63	55.709	270.68	101.88	1509.8	324.71	13.926	1304.9	302.69
309	1.2833	304.23	1290.9	330.03	169.53	1448.2	471.16	196.46	1477.4	174	163.28	1764.3	352.31	238.4	1019.7	429.94	248.93	1035.7	200.44	42.202	1044.8	335.11	51.271	1053.5	253.54	166.94	943.74	499.35	187.02	973.27	139.01	141.43	1102	469.37	187.98	1111.8	171.62	24.677	1015.2	295.2	255.56	747.64	509.9	336.25	693.59	476.08	282.82	662.15	507.07	309.24	780.76	474.46	309.77	536.41	471.11	323.93	540.38	341.37	148.19	374.45	456.59	174.1	286.74	447.82	112.28	310.08	450.67	216.41	351.07	457.21	75.694	207.02	428.39	99.219	208.56	351.8	8.956	197.62	368.96	4.4664	169.74	340.82	-6.8178	176.37	401.73	118.41	71.98	469.32	160.96	61.04	368.3	211.8	46.516	417.96	143.93	691.61	158.98	212.69	609.91	188.89	141.78	599.1	186.08	222.31	697.87	161.49	175.66	512.86	199.03	184.21	516.9	327.53	88.014	307.76	203.66	141.36	212.81	224.85	81.373	231.32	215.7	149.21	288.72	211.69	92.479	108.68	232.17	104.6	121.37	318.42	20.712	78.911	276.91	31.355	46.245	309.48	27.25	49.534	245.51	204.62	41.58	209.32	231.62	45.664	318.24	286.72	55.504	270.65	107.12	1510.2	324.56	19.18	1305.4	301.95
310	1.2875	309.27	1291.3	330.23	174.16	1448.4	471.2	202.34	1478.2	174.27	168.7	1764.6	352.69	243.44	1020.3	429.8	253.81	1035.7	200.27	47.17	1045.2	335.23	56.197	1053.8	253.59	172.23	944.6	499.55	191.66	973.15	139.06	146.57	1102.6	469.2	193.01	1111.9	171.43	29.628	1015.5	295.38	262.14	748.93	509.9	343.08	695.35	475.57	290.09	663.62	507	315.63	782.38	474.03	317	537.69	470.7	330.6	542.17	341.26	158.38	372.19	456.2	186.31	285.13	447.77	124.01	307.02	450.34	227.09	350.38	457.02	89.757	202.92	428.25	113.6	204.82	351.82	23.175	191.18	368.74	19.694	162.97	340.74	8.063	169.53	401.57	136.55	69.795	470.1	179.74	59.611	369.24	230.93	47.088	419.11	146.73	692.02	159.15	214.96	609.79	188.84	143.95	599.5	186.19	225.13	697.71	161.56	177.15	512.9	198.92	185.98	516.76	327.42	88.874	308.1	203.62	141.79	212.92	224.79	81.991	231.71	215.66	149.92	288.82	211.61	92.642	108.83	232.23	104.85	121.61	318.52	20.879	79.068	277.02	31.565	46.325	309.55	27.33	49.727	245.57	204.65	41.544	209.33	231.71	45.642	318.17	286.8	55.299	270.63	112.37	1510.5	324.42	24.443	1305.8	301.23
311	1.2917	314.31	1291.7	330.41	178.82	1448.6	471.24	208.21	1478.9	174.54	174.11	1764.8	353.09	248.51	1020.9	429.66	258.68	1035.6	200.1	52.144	1045.5	335.38	61.126	1054	253.68	177.54	945.4	499.77	196.31	972.99	139.13	151.75	1103.2	469.06	198.03	1111.9	171.26	34.581	1015.8	295.59	268.66	750.15	509.88	349.82	697.01	475.05	297.26	665.01	506.9	321.98	783.92	473.59	324.08	538.88	470.27	337.08	543.86	341.13	168.58	369.83	455.82	198.55	283.48	447.73	135.8	303.87	450.01	237.76	349.63	456.83	103.98	198.76	428.14	128.11	201.06	351.87	37.634	184.69	368.58	35.163	156.2	340.72	23.202	162.67	401.46	154.8	67.648	470.87	198.56	58.267	370.16	250.05	47.74	420.2	149.58	692.4	159.3	217.29	609.67	188.78	146.16	599.87	186.27	227.99	697.54	161.66	178.67	512.93	198.81	187.76	516.61	327.32	89.749	308.44	203.59	142.25	213.04	224.73	82.614	232.1	215.62	150.65	288.91	211.54	92.811	108.98	232.29	105.15	121.85	318.63	21.052	79.234	277.14	31.766	46.411	309.64	27.411	49.93	245.65	204.68	41.51	209.34	231.79	45.615	318.11	286.89	55.095	270.6	117.63	1510.8	324.29	29.713	1306.2	300.54
312	1.2958	319.35	1292.1	330.57	183.51	1448.7	471.28	214.06	1479.6	174.82	179.52	1765	353.5	253.61	1021.4	429.53	263.54	1035.5	199.94	57.126	1045.8	335.56	66.059	1054.2	253.81	182.87	946.14	499.99	200.96	972.79	139.2	156.97	1103.7	468.94	203.03	1111.8	171.1	39.538	1016.1	295.82	275.11	751.29	509.83	356.48	698.55	474.52	304.33	666.3	506.76	328.28	785.36	473.14	331.01	539.99	469.82	343.41	545.42	340.99	178.8	367.36	455.44	210.84	281.79	447.7	147.66	300.64	449.69	248.43	348.83	456.64	118.35	194.56	428.06	142.73	197.28	351.93	52.331	178.19	368.47	50.872	149.46	340.76	38.596	155.8	401.41	173.13	65.551	471.6	217.41	57.02	371.04	269.15	48.476	421.23	152.47	692.76	159.43	219.66	609.56	188.72	148.4	600.22	186.35	230.86	697.36	161.78	180.21	512.95	198.71	189.53	516.43	327.23	90.638	308.78	203.56	142.73	213.15	224.67	83.244	232.48	215.6	151.39	288.99	211.47	92.987	109.14	232.35	105.49	122.1	318.76	21.226	79.41	277.28	31.954	46.506	309.74	27.493	50.143	245.73	204.71	41.478	209.35	231.88	45.581	318.06	286.97	54.892	270.57	122.9	1511	324.18	34.993	1306.6	299.88
313	1.3	324.41	1292.3	330.72	188.22	1448.8	471.32	219.9	1480.2	175.11	184.91	1765.1	353.91	258.74	1021.8	429.42	268.4	1035.4	199.79	62.116	1046.1	335.76	70.996	1054.3	253.96	188.23	946.81	500.23	205.61	972.55	139.28	162.24	1104.2	468.83	208.03	1111.7	170.97	44.502	1016.3	296.09	281.49	752.34	509.76	363.05	699.99	473.97	311.29	667.49	506.58	334.52	786.69	472.68	337.79	541	469.35	349.57	546.86	340.83	189.05	364.81	455.08	223.16	280.08	447.68	159.6	297.35	449.38	259.08	347.98	456.45	132.88	190.34	428.01	157.46	193.51	352.02	67.262	171.69	368.42	66.815	142.76	340.86	54.238	148.95	401.41	191.54	63.515	472.31	236.27	55.884	371.89	288.23	49.304	422.21	155.39	693.1	159.54	222.07	609.44	188.66	150.69	600.55	186.41	233.77	697.17	161.92	181.78	512.96	198.62	191.31	516.24	327.14	91.541	309.12	203.53	143.24	213.26	224.63	83.882	232.86	215.59	152.15	289.06	211.42	93.171	109.3	232.43	105.89	122.35	318.9	21.402	79.598	277.43	32.129	46.614	309.85	27.578	50.369	245.82	204.74	41.447	209.36	231.96	45.534	318.03	287.06	54.689	270.54	128.18	1511.2	324.08	40.281	1306.9	299.24
